<svg width="140" height="56" viewBox="0 0 140 56" fill="none" xmlns="http://www.w3.org/2000/svg">
<rect width="140" height="56" rx="4" fill="#3563E9"/>
<path d="M34.7251 35V23.08H39.1571C39.9678 23.08 40.6825 23.2293 41.3011 23.528C41.9305 23.816 42.4211 24.2427 42.7731 24.808C43.1251 25.3627 43.3011 26.04 43.3011 26.84C43.3011 27.6613 43.1038 28.36 42.7091 28.936C42.3251 29.512 41.8025 29.9387 41.1411 30.216L43.8771 35H41.4131L38.4851 29.768L39.8931 30.6H36.9011V35H34.7251ZM36.9011 28.68H39.1891C39.5838 28.68 39.9251 28.6053 40.2131 28.456C40.5011 28.296 40.7251 28.0773 40.8851 27.8C41.0451 27.5227 41.1251 27.2027 41.1251 26.84C41.1251 26.4667 41.0451 26.1467 40.8851 25.88C40.7251 25.6027 40.5011 25.3893 40.2131 25.24C39.9251 25.08 39.5838 25 39.1891 25H36.9011V28.68ZM48.4509 35.192C47.5549 35.192 46.7709 34.9893 46.0989 34.584C45.4269 34.1787 44.9042 33.6293 44.5309 32.936C44.1575 32.2427 43.9709 31.4747 43.9709 30.632C43.9709 29.7573 44.1575 28.984 44.5309 28.312C44.9149 27.6293 45.4322 27.0907 46.0829 26.696C46.7442 26.3013 47.4802 26.104 48.2909 26.104C48.9735 26.104 49.5709 26.216 50.0829 26.44C50.6055 26.664 51.0482 26.9733 51.4109 27.368C51.7735 27.7627 52.0509 28.216 52.2429 28.728C52.4349 29.2293 52.5309 29.7733 52.5309 30.36C52.5309 30.5093 52.5202 30.664 52.4989 30.824C52.4882 30.984 52.4615 31.1227 52.4189 31.24H45.6989V29.64H51.2349L50.2429 30.392C50.3389 29.9013 50.3122 29.464 50.1629 29.08C50.0242 28.696 49.7895 28.392 49.4589 28.168C49.1389 27.944 48.7495 27.832 48.2909 27.832C47.8535 27.832 47.4642 27.944 47.1229 28.168C46.7815 28.3813 46.5202 28.7013 46.3389 29.128C46.1682 29.544 46.1042 30.0507 46.1469 30.648C46.1042 31.1813 46.1735 31.656 46.3549 32.072C46.5469 32.4773 46.8242 32.792 47.1869 33.016C47.5602 33.24 47.9869 33.352 48.4669 33.352C48.9469 33.352 49.3522 33.2507 49.6829 33.048C50.0242 32.8453 50.2909 32.5733 50.4829 32.232L52.1789 33.064C52.0082 33.48 51.7415 33.848 51.3789 34.168C51.0162 34.488 50.5842 34.7387 50.0829 34.92C49.5922 35.1013 49.0482 35.192 48.4509 35.192ZM53.7997 35V26.296H55.7677V28.008L55.6077 27.704C55.8104 27.1813 56.1411 26.7867 56.5997 26.52C57.0691 26.2427 57.6131 26.104 58.2318 26.104C58.8718 26.104 59.4371 26.2427 59.9278 26.52C60.4291 26.7973 60.8184 27.1867 61.0957 27.688C61.3731 28.1787 61.5118 28.7493 61.5118 29.4V35H59.4158V29.896C59.4158 29.512 59.3411 29.1813 59.1918 28.904C59.0424 28.6267 58.8344 28.4133 58.5677 28.264C58.3117 28.104 58.0077 28.024 57.6557 28.024C57.3144 28.024 57.0104 28.104 56.7437 28.264C56.4771 28.4133 56.2691 28.6267 56.1197 28.904C55.9704 29.1813 55.8957 29.512 55.8957 29.896V35H53.7997ZM66.9321 35.096C65.9508 35.096 65.1881 34.8293 64.6441 34.296C64.1108 33.752 63.8441 32.9893 63.8441 32.008V28.168H62.3401V26.296H62.5001C62.9268 26.296 63.2575 26.184 63.4921 25.96C63.7268 25.736 63.8441 25.4107 63.8441 24.984V24.312H65.9401V26.296H67.9401V28.168H65.9401V31.896C65.9401 32.184 65.9881 32.4293 66.0841 32.632C66.1908 32.8347 66.3508 32.9893 66.5641 33.096C66.7881 33.2027 67.0708 33.256 67.4121 33.256C67.4868 33.256 67.5721 33.2507 67.6681 33.24C67.7748 33.2293 67.8761 33.2187 67.9721 33.208V35C67.8228 35.0213 67.6521 35.0427 67.4601 35.064C67.2681 35.0853 67.0921 35.096 66.9321 35.096ZM71.9533 35V23.08H73.6493L80.2093 31.912L79.3293 32.088V23.08H81.5053V35H79.7933L73.3293 26.104L74.1293 25.928V35H71.9533ZM87.5726 35.192C86.7193 35.192 85.9406 34.9947 85.2366 34.6C84.5433 34.2053 83.9886 33.6667 83.5726 32.984C83.1673 32.3013 82.9646 31.5227 82.9646 30.648C82.9646 29.7733 83.1673 28.9947 83.5726 28.312C83.9886 27.6293 84.5433 27.0907 85.2366 26.696C85.93 26.3013 86.7086 26.104 87.5726 26.104C88.426 26.104 89.1993 26.3013 89.8926 26.696C90.586 27.0907 91.1353 27.6293 91.5406 28.312C91.9566 28.984 92.1646 29.7627 92.1646 30.648C92.1646 31.5227 91.9566 32.3013 91.5406 32.984C91.1246 33.6667 90.57 34.2053 89.8766 34.6C89.1833 34.9947 88.4153 35.192 87.5726 35.192ZM87.5726 33.272C88.042 33.272 88.4526 33.16 88.8046 32.936C89.1673 32.712 89.45 32.4027 89.6526 32.008C89.866 31.6027 89.9726 31.1493 89.9726 30.648C89.9726 30.136 89.866 29.688 89.6526 29.304C89.45 28.9093 89.1673 28.6 88.8046 28.376C88.4526 28.1413 88.042 28.024 87.5726 28.024C87.0926 28.024 86.6713 28.1413 86.3086 28.376C85.946 28.6 85.658 28.9093 85.4446 29.304C85.242 29.688 85.1406 30.136 85.1406 30.648C85.1406 31.1493 85.242 31.6027 85.4446 32.008C85.658 32.4027 85.946 32.712 86.3086 32.936C86.6713 33.16 87.0926 33.272 87.5726 33.272ZM95.4699 35L92.4779 26.296H94.6859L96.8779 32.904L96.1099 32.888L98.4459 26.296H100.302L102.622 32.888L101.854 32.904L104.046 26.296H106.254L103.262 35H101.39L99.0219 28.104H99.7259L97.3259 35H95.4699Z" fill="white"/>
</svg>
