<svg width="200" height="56" viewBox="0 0 200 56" fill="none" xmlns="http://www.w3.org/2000/svg">
<path d="M9.464 29.336C8.13867 29.336 6.90667 29.0933 5.768 28.608C4.648 28.1227 3.67733 27.4507 2.856 26.592C2.05333 25.7147 1.46533 24.6973 1.092 23.54L4.256 22.168C4.76 23.3627 5.488 24.3053 6.44 24.996C7.392 25.668 8.46533 26.004 9.66 26.004C10.332 26.004 10.9107 25.9013 11.396 25.696C11.9 25.472 12.2827 25.1733 12.544 24.8C12.824 24.4267 12.964 23.9787 12.964 23.456C12.964 22.84 12.7773 22.336 12.404 21.944C12.0493 21.5333 11.508 21.216 10.78 20.992L6.776 19.704C5.152 19.2 3.92933 18.444 3.108 17.436C2.28667 16.428 1.876 15.2427 1.876 13.88C1.876 12.6853 2.16533 11.6307 2.744 10.716C3.34133 9.80133 4.16267 9.092 5.208 8.588C6.272 8.06533 7.48533 7.804 8.848 7.804C10.0987 7.804 11.2467 8.028 12.292 8.476C13.3373 8.90533 14.2333 9.512 14.98 10.296C15.7453 11.0613 16.3147 11.9667 16.688 13.012L13.552 14.412C13.1413 13.3667 12.5253 12.564 11.704 12.004C10.8827 11.4253 9.93067 11.136 8.848 11.136C8.21333 11.136 7.65333 11.248 7.168 11.472C6.68267 11.6773 6.3 11.976 6.02 12.368C5.75867 12.7413 5.628 13.1893 5.628 13.712C5.628 14.2907 5.81467 14.804 6.188 15.252C6.56133 15.6813 7.13067 16.0173 7.896 16.26L11.732 17.464C13.3933 18.0053 14.6347 18.752 15.456 19.704C16.296 20.656 16.716 21.832 16.716 23.232C16.716 24.4267 16.408 25.4813 15.792 26.396C15.176 27.3107 14.3267 28.0293 13.244 28.552C12.1613 29.0747 10.9013 29.336 9.464 29.336ZM8.12 31.8V5.34H10.5V31.8H8.12ZM26.9769 29.336C25.4649 29.336 24.1489 29.056 23.0289 28.496C21.9276 27.9173 21.0689 27.1427 20.4529 26.172C19.8556 25.2013 19.5569 24.1373 19.5569 22.98C19.5569 21.6173 19.9209 20.4693 20.6489 19.536C21.3769 18.584 22.4316 17.884 23.8129 17.436L23.5889 18.36C22.5996 18.0427 21.8156 17.4267 21.2369 16.512C20.6769 15.5973 20.3969 14.5893 20.3969 13.488C20.3969 12.3867 20.6769 11.4067 21.2369 10.548C21.7969 9.68933 22.5716 9.01733 23.5609 8.532C24.5502 8.04667 25.6889 7.804 26.9769 7.804C28.2462 7.804 29.3662 8.04667 30.3369 8.532C31.3262 9.01733 32.1009 9.68933 32.6609 10.548C33.2396 11.4067 33.5289 12.3867 33.5289 13.488C33.5289 14.608 33.2396 15.6253 32.6609 16.54C32.1009 17.436 31.3262 18.052 30.3369 18.388L30.1409 17.408C31.5222 17.8933 32.5769 18.612 33.3049 19.564C34.0329 20.4973 34.3969 21.6453 34.3969 23.008C34.3969 24.1653 34.0889 25.2293 33.4729 26.2C32.8756 27.152 32.0169 27.9173 30.8969 28.496C29.7956 29.056 28.4889 29.336 26.9769 29.336ZM26.9769 26.116C27.7049 26.116 28.3396 25.9853 28.8809 25.724C29.4222 25.444 29.8422 25.0613 30.1409 24.576C30.4396 24.072 30.5889 23.5027 30.5889 22.868C30.5889 22.2147 30.4396 21.6547 30.1409 21.188C29.8422 20.7027 29.4222 20.3293 28.8809 20.068C28.3396 19.788 27.7049 19.648 26.9769 19.648C26.2489 19.648 25.6142 19.788 25.0729 20.068C24.5502 20.3293 24.1396 20.7027 23.8409 21.188C23.5422 21.6547 23.3929 22.2147 23.3929 22.868C23.3929 23.5027 23.5422 24.072 23.8409 24.576C24.1396 25.0613 24.5502 25.444 25.0729 25.724C25.6142 25.9853 26.2489 26.116 26.9769 26.116ZM26.9769 16.428C27.5182 16.428 27.9942 16.3067 28.4049 16.064C28.8156 15.8213 29.1329 15.504 29.3569 15.112C29.5996 14.7013 29.7209 14.2347 29.7209 13.712C29.7209 13.1893 29.5996 12.732 29.3569 12.34C29.1329 11.9293 28.8156 11.612 28.4049 11.388C27.9942 11.1453 27.5182 11.024 26.9769 11.024C26.4356 11.024 25.9502 11.1453 25.5209 11.388C25.1102 11.612 24.7836 11.9293 24.5409 12.34C24.3169 12.732 24.2049 13.1893 24.2049 13.712C24.2049 14.2347 24.3169 14.7013 24.5409 15.112C24.7836 15.504 25.1102 15.8213 25.5209 16.064C25.9502 16.3067 26.4356 16.428 26.9769 16.428ZM45.7323 29.336C44.071 29.336 42.615 28.888 41.3643 27.992C40.1136 27.096 39.1336 25.836 38.4243 24.212C37.7336 22.588 37.3883 20.7027 37.3883 18.556C37.3883 16.3907 37.7336 14.5053 38.4243 12.9C39.115 11.2947 40.0856 10.044 41.3363 9.148C42.587 8.252 44.043 7.804 45.7043 7.804C47.403 7.804 48.8683 8.252 50.1003 9.148C51.351 10.044 52.331 11.304 53.0403 12.928C53.7496 14.5333 54.1043 16.4093 54.1043 18.556C54.1043 20.7027 53.7496 22.588 53.0403 24.212C52.3496 25.8173 51.379 27.0773 50.1283 27.992C48.8776 28.888 47.4123 29.336 45.7323 29.336ZM45.7603 25.864C46.7123 25.864 47.5243 25.5747 48.1963 24.996C48.8683 24.3987 49.3816 23.5587 49.7363 22.476C50.1096 21.3747 50.2963 20.068 50.2963 18.556C50.2963 17.044 50.1096 15.7467 49.7363 14.664C49.3816 13.5627 48.859 12.7227 48.1683 12.144C47.4963 11.5653 46.675 11.276 45.7043 11.276C44.771 11.276 43.9683 11.5653 43.2963 12.144C42.6243 12.7227 42.1016 13.5627 41.7283 14.664C41.3736 15.7467 41.1963 17.044 41.1963 18.556C41.1963 20.0493 41.3736 21.3467 41.7283 22.448C42.1016 23.5307 42.6243 24.3707 43.2963 24.968C43.987 25.5653 44.8083 25.864 45.7603 25.864ZM59.0885 29V25.08H62.7845V29H59.0885ZM76.1386 29.336C74.4772 29.336 73.0212 28.888 71.7706 27.992C70.5199 27.096 69.5399 25.836 68.8306 24.212C68.1399 22.588 67.7946 20.7027 67.7946 18.556C67.7946 16.3907 68.1399 14.5053 68.8306 12.9C69.5212 11.2947 70.4919 10.044 71.7426 9.148C72.9932 8.252 74.4492 7.804 76.1106 7.804C77.8092 7.804 79.2746 8.252 80.5066 9.148C81.7572 10.044 82.7372 11.304 83.4466 12.928C84.1559 14.5333 84.5106 16.4093 84.5106 18.556C84.5106 20.7027 84.1559 22.588 83.4466 24.212C82.7559 25.8173 81.7852 27.0773 80.5346 27.992C79.2839 28.888 77.8186 29.336 76.1386 29.336ZM76.1666 25.864C77.1186 25.864 77.9306 25.5747 78.6026 24.996C79.2746 24.3987 79.7879 23.5587 80.1426 22.476C80.5159 21.3747 80.7026 20.068 80.7026 18.556C80.7026 17.044 80.5159 15.7467 80.1426 14.664C79.7879 13.5627 79.2652 12.7227 78.5746 12.144C77.9026 11.5653 77.0812 11.276 76.1106 11.276C75.1772 11.276 74.3746 11.5653 73.7026 12.144C73.0306 12.7227 72.5079 13.5627 72.1346 14.664C71.7799 15.7467 71.6026 17.044 71.6026 18.556C71.6026 20.0493 71.7799 21.3467 72.1346 22.448C72.5079 23.5307 73.0306 24.3707 73.7026 24.968C74.3932 25.5653 75.2146 25.864 76.1666 25.864ZM95.9628 29.336C94.3014 29.336 92.8454 28.888 91.5948 27.992C90.3441 27.096 89.3641 25.836 88.6548 24.212C87.9641 22.588 87.6188 20.7027 87.6188 18.556C87.6188 16.3907 87.9641 14.5053 88.6548 12.9C89.3454 11.2947 90.3161 10.044 91.5668 9.148C92.8174 8.252 94.2734 7.804 95.9348 7.804C97.6334 7.804 99.0988 8.252 100.331 9.148C101.581 10.044 102.561 11.304 103.271 12.928C103.98 14.5333 104.335 16.4093 104.335 18.556C104.335 20.7027 103.98 22.588 103.271 24.212C102.58 25.8173 101.609 27.0773 100.359 27.992C99.1081 28.888 97.6428 29.336 95.9628 29.336ZM95.9908 25.864C96.9428 25.864 97.7548 25.5747 98.4268 24.996C99.0988 24.3987 99.6121 23.5587 99.9668 22.476C100.34 21.3747 100.527 20.068 100.527 18.556C100.527 17.044 100.34 15.7467 99.9668 14.664C99.6121 13.5627 99.0894 12.7227 98.3988 12.144C97.7268 11.5653 96.9054 11.276 95.9348 11.276C95.0014 11.276 94.1988 11.5653 93.5268 12.144C92.8548 12.7227 92.3321 13.5627 91.9588 14.664C91.6041 15.7467 91.4268 17.044 91.4268 18.556C91.4268 20.0493 91.6041 21.3467 91.9588 22.448C92.3321 23.5307 92.8548 24.3707 93.5268 24.968C94.2174 25.5653 95.0388 25.864 95.9908 25.864ZM106.323 32.36L115.619 9.26H119.623L110.327 32.36H106.323Z" fill="#1A202C"/>
<path d="M130.751 29.192C129.908 29.192 129.156 28.9947 128.495 28.6C127.833 28.1947 127.311 27.6453 126.927 26.952C126.543 26.2587 126.351 25.4907 126.351 24.648C126.351 23.7947 126.543 23.0267 126.927 22.344C127.311 21.6613 127.833 21.1173 128.495 20.712C129.167 20.3067 129.913 20.104 130.735 20.104C131.396 20.104 131.983 20.2373 132.495 20.504C133.017 20.76 133.428 21.1227 133.727 21.592L133.407 22.024V16.888H135.503V29H133.519V27.32L133.743 27.736C133.444 28.2053 133.028 28.568 132.495 28.824C131.961 29.0693 131.38 29.192 130.751 29.192ZM130.975 27.272C131.455 27.272 131.876 27.16 132.239 26.936C132.601 26.712 132.884 26.4027 133.087 26.008C133.3 25.6133 133.407 25.16 133.407 24.648C133.407 24.1467 133.3 23.6987 133.087 23.304C132.884 22.8987 132.601 22.584 132.239 22.36C131.876 22.136 131.455 22.024 130.975 22.024C130.505 22.024 130.084 22.1413 129.711 22.376C129.337 22.6 129.044 22.9093 128.831 23.304C128.628 23.688 128.527 24.136 128.527 24.648C128.527 25.16 128.628 25.6133 128.831 26.008C129.044 26.4027 129.337 26.712 129.711 26.936C130.084 27.16 130.505 27.272 130.975 27.272ZM140.093 29.192C139.485 29.192 138.957 29.0907 138.509 28.888C138.061 28.6853 137.714 28.3973 137.469 28.024C137.223 27.64 137.101 27.1973 137.101 26.696C137.101 26.216 137.207 25.7893 137.421 25.416C137.634 25.032 137.965 24.712 138.413 24.456C138.861 24.2 139.426 24.0187 140.109 23.912L142.957 23.448V25.048L140.509 25.464C140.093 25.5387 139.783 25.672 139.581 25.864C139.378 26.056 139.277 26.3067 139.277 26.616C139.277 26.9147 139.389 27.1547 139.613 27.336C139.847 27.5067 140.135 27.592 140.477 27.592C140.914 27.592 141.298 27.5013 141.629 27.32C141.97 27.128 142.231 26.8667 142.413 26.536C142.605 26.2053 142.701 25.8427 142.701 25.448V23.208C142.701 22.8347 142.551 22.5253 142.253 22.28C141.965 22.024 141.581 21.896 141.101 21.896C140.653 21.896 140.253 22.0187 139.901 22.264C139.559 22.4987 139.309 22.8133 139.149 23.208L137.437 22.376C137.607 21.9173 137.874 21.5227 138.237 21.192C138.61 20.8507 139.047 20.584 139.549 20.392C140.05 20.2 140.594 20.104 141.181 20.104C141.895 20.104 142.525 20.2373 143.069 20.504C143.613 20.76 144.034 21.1227 144.333 21.592C144.642 22.0507 144.797 22.5893 144.797 23.208V29H142.813V27.512L143.261 27.48C143.037 27.8533 142.77 28.168 142.461 28.424C142.151 28.6693 141.799 28.8613 141.405 29C141.01 29.128 140.573 29.192 140.093 29.192ZM147.79 32.536C147.555 32.536 147.326 32.5147 147.102 32.472C146.878 32.44 146.675 32.3813 146.494 32.296V30.536C146.632 30.568 146.798 30.6 146.99 30.632C147.192 30.664 147.379 30.68 147.55 30.68C148.03 30.68 148.376 30.568 148.59 30.344C148.814 30.12 149.011 29.8267 149.182 29.464L149.758 28.12L149.726 29.88L145.934 20.296H148.19L150.846 27.368H150.046L152.686 20.296H154.958L151.166 29.88C150.942 30.4453 150.67 30.9253 150.35 31.32C150.03 31.7147 149.656 32.0133 149.23 32.216C148.814 32.4293 148.334 32.536 147.79 32.536ZM159.421 29.192C158.493 29.192 157.682 28.9733 156.989 28.536C156.306 28.088 155.837 27.4853 155.581 26.728L157.149 25.976C157.373 26.4667 157.682 26.8507 158.077 27.128C158.482 27.4053 158.93 27.544 159.421 27.544C159.805 27.544 160.109 27.4587 160.333 27.288C160.557 27.1173 160.669 26.8933 160.669 26.616C160.669 26.4453 160.621 26.3067 160.525 26.2C160.439 26.0827 160.317 25.9867 160.157 25.912C160.007 25.8267 159.842 25.7573 159.661 25.704L158.237 25.304C157.501 25.0907 156.941 24.7653 156.557 24.328C156.183 23.8907 155.997 23.3733 155.997 22.776C155.997 22.2427 156.13 21.7787 156.397 21.384C156.674 20.9787 157.053 20.664 157.533 20.44C158.023 20.216 158.583 20.104 159.213 20.104C160.034 20.104 160.759 20.3013 161.389 20.696C162.018 21.0907 162.466 21.6453 162.733 22.36L161.133 23.112C160.983 22.7173 160.733 22.4027 160.381 22.168C160.029 21.9333 159.634 21.816 159.197 21.816C158.845 21.816 158.567 21.896 158.365 22.056C158.162 22.216 158.061 22.424 158.061 22.68C158.061 22.84 158.103 22.9787 158.189 23.096C158.274 23.2133 158.391 23.3093 158.541 23.384C158.701 23.4587 158.882 23.528 159.085 23.592L160.477 24.008C161.191 24.2213 161.741 24.5413 162.125 24.968C162.519 25.3947 162.717 25.9173 162.717 26.536C162.717 27.0587 162.578 27.5227 162.301 27.928C162.023 28.3227 161.639 28.632 161.149 28.856C160.658 29.08 160.082 29.192 159.421 29.192Z" fill="#90A3BF"/>
<path d="M5.408 53.192C4.65067 53.192 3.94667 53.0533 3.296 52.776C2.656 52.4987 2.10133 52.1147 1.632 51.624C1.17333 51.1227 0.837333 50.5413 0.624 49.88L2.432 49.096C2.72 49.7787 3.136 50.3173 3.68 50.712C4.224 51.096 4.83733 51.288 5.52 51.288C5.904 51.288 6.23467 51.2293 6.512 51.112C6.8 50.984 7.01867 50.8133 7.168 50.6C7.328 50.3867 7.408 50.1307 7.408 49.832C7.408 49.48 7.30133 49.192 7.088 48.968C6.88533 48.7333 6.576 48.552 6.16 48.424L3.872 47.688C2.944 47.4 2.24533 46.968 1.776 46.392C1.30667 45.816 1.072 45.1387 1.072 44.36C1.072 43.6773 1.23733 43.0747 1.568 42.552C1.90933 42.0293 2.37867 41.624 2.976 41.336C3.584 41.0373 4.27733 40.888 5.056 40.888C5.77067 40.888 6.42667 41.016 7.024 41.272C7.62133 41.5173 8.13333 41.864 8.56 42.312C8.99733 42.7493 9.32267 43.2667 9.536 43.864L7.744 44.664C7.50933 44.0667 7.15733 43.608 6.688 43.288C6.21867 42.9573 5.67467 42.792 5.056 42.792C4.69333 42.792 4.37333 42.856 4.096 42.984C3.81867 43.1013 3.6 43.272 3.44 43.496C3.29067 43.7093 3.216 43.9653 3.216 44.264C3.216 44.5947 3.32267 44.888 3.536 45.144C3.74933 45.3893 4.07467 45.5813 4.512 45.72L6.704 46.408C7.65333 46.7173 8.36267 47.144 8.832 47.688C9.312 48.232 9.552 48.904 9.552 49.704C9.552 50.3867 9.376 50.9893 9.024 51.512C8.672 52.0347 8.18667 52.4453 7.568 52.744C6.94933 53.0427 6.22933 53.192 5.408 53.192ZM4.64 54.6V39.48H6V54.6H4.64ZM13.1274 53V42.936H10.8234V41.08H15.3034V53H13.1274ZM22.4765 53.192C21.5272 53.192 20.6952 52.936 19.9805 52.424C19.2658 51.912 18.7058 51.192 18.3005 50.264C17.9058 49.336 17.7085 48.2587 17.7085 47.032C17.7085 45.7947 17.9058 44.7173 18.3005 43.8C18.6952 42.8827 19.2498 42.168 19.9645 41.656C20.6792 41.144 21.5112 40.888 22.4605 40.888C23.4312 40.888 24.2685 41.144 24.9725 41.656C25.6872 42.168 26.2472 42.888 26.6525 43.816C27.0578 44.7333 27.2605 45.8053 27.2605 47.032C27.2605 48.2587 27.0578 49.336 26.6525 50.264C26.2578 51.1813 25.7032 51.9013 24.9885 52.424C24.2738 52.936 23.4365 53.192 22.4765 53.192ZM22.4925 51.208C23.0365 51.208 23.5005 51.0427 23.8845 50.712C24.2685 50.3707 24.5618 49.8907 24.7645 49.272C24.9778 48.6427 25.0845 47.896 25.0845 47.032C25.0845 46.168 24.9778 45.4267 24.7645 44.808C24.5618 44.1787 24.2632 43.6987 23.8685 43.368C23.4845 43.0373 23.0152 42.872 22.4605 42.872C21.9272 42.872 21.4685 43.0373 21.0845 43.368C20.7005 43.6987 20.4018 44.1787 20.1885 44.808C19.9858 45.4267 19.8845 46.168 19.8845 47.032C19.8845 47.8853 19.9858 48.6267 20.1885 49.256C20.4018 49.8747 20.7005 50.3547 21.0845 50.696C21.4792 51.0373 21.9485 51.208 22.4925 51.208ZM33.8046 53.192C32.8553 53.192 32.0233 52.936 31.3086 52.424C30.594 51.912 30.034 51.192 29.6286 50.264C29.234 49.336 29.0366 48.2587 29.0366 47.032C29.0366 45.7947 29.234 44.7173 29.6286 43.8C30.0233 42.8827 30.578 42.168 31.2926 41.656C32.0073 41.144 32.8393 40.888 33.7886 40.888C34.7593 40.888 35.5966 41.144 36.3006 41.656C37.0153 42.168 37.5753 42.888 37.9806 43.816C38.386 44.7333 38.5886 45.8053 38.5886 47.032C38.5886 48.2587 38.386 49.336 37.9806 50.264C37.586 51.1813 37.0313 51.9013 36.3166 52.424C35.602 52.936 34.7646 53.192 33.8046 53.192ZM33.8206 51.208C34.3646 51.208 34.8286 51.0427 35.2126 50.712C35.5966 50.3707 35.89 49.8907 36.0926 49.272C36.306 48.6427 36.4126 47.896 36.4126 47.032C36.4126 46.168 36.306 45.4267 36.0926 44.808C35.89 44.1787 35.5913 43.6987 35.1966 43.368C34.8126 43.0373 34.3433 42.872 33.7886 42.872C33.2553 42.872 32.7966 43.0373 32.4126 43.368C32.0286 43.6987 31.73 44.1787 31.5166 44.808C31.314 45.4267 31.2126 46.168 31.2126 47.032C31.2126 47.8853 31.314 48.6267 31.5166 49.256C31.73 49.8747 32.0286 50.3547 32.4126 50.696C32.8073 51.0373 33.2766 51.208 33.8206 51.208ZM41.4368 53V50.76H43.5488V53H41.4368ZM51.1796 53.192C50.2303 53.192 49.3983 52.936 48.6836 52.424C47.969 51.912 47.409 51.192 47.0036 50.264C46.609 49.336 46.4116 48.2587 46.4116 47.032C46.4116 45.7947 46.609 44.7173 47.0036 43.8C47.3983 42.8827 47.953 42.168 48.6676 41.656C49.3823 41.144 50.2143 40.888 51.1636 40.888C52.1343 40.888 52.9716 41.144 53.6756 41.656C54.3903 42.168 54.9503 42.888 55.3556 43.816C55.761 44.7333 55.9636 45.8053 55.9636 47.032C55.9636 48.2587 55.761 49.336 55.3556 50.264C54.961 51.1813 54.4063 51.9013 53.6916 52.424C52.977 52.936 52.1396 53.192 51.1796 53.192ZM51.1956 51.208C51.7396 51.208 52.2036 51.0427 52.5876 50.712C52.9716 50.3707 53.265 49.8907 53.4676 49.272C53.681 48.6427 53.7876 47.896 53.7876 47.032C53.7876 46.168 53.681 45.4267 53.4676 44.808C53.265 44.1787 52.9663 43.6987 52.5716 43.368C52.1876 43.0373 51.7183 42.872 51.1636 42.872C50.6303 42.872 50.1716 43.0373 49.7876 43.368C49.4036 43.6987 49.105 44.1787 48.8916 44.808C48.689 45.4267 48.5876 46.168 48.5876 47.032C48.5876 47.8853 48.689 48.6267 48.8916 49.256C49.105 49.8747 49.4036 50.3547 49.7876 50.696C50.1823 51.0373 50.6516 51.208 51.1956 51.208ZM62.5078 53.192C61.5584 53.192 60.7264 52.936 60.0118 52.424C59.2971 51.912 58.7371 51.192 58.3318 50.264C57.9371 49.336 57.7398 48.2587 57.7398 47.032C57.7398 45.7947 57.9371 44.7173 58.3318 43.8C58.7264 42.8827 59.2811 42.168 59.9958 41.656C60.7104 41.144 61.5424 40.888 62.4918 40.888C63.4624 40.888 64.2998 41.144 65.0038 41.656C65.7184 42.168 66.2784 42.888 66.6838 43.816C67.0891 44.7333 67.2918 45.8053 67.2918 47.032C67.2918 48.2587 67.0891 49.336 66.6838 50.264C66.2891 51.1813 65.7344 51.9013 65.0198 52.424C64.3051 52.936 63.4678 53.192 62.5078 53.192ZM62.5238 51.208C63.0678 51.208 63.5318 51.0427 63.9158 50.712C64.2998 50.3707 64.5931 49.8907 64.7958 49.272C65.0091 48.6427 65.1158 47.896 65.1158 47.032C65.1158 46.168 65.0091 45.4267 64.7958 44.808C64.5931 44.1787 64.2944 43.6987 63.8998 43.368C63.5158 43.0373 63.0464 42.872 62.4918 42.872C61.9584 42.872 61.4998 43.0373 61.1158 43.368C60.7318 43.6987 60.4331 44.1787 60.2198 44.808C60.0171 45.4267 59.9158 46.168 59.9158 47.032C59.9158 47.8853 60.0171 48.6267 60.2198 49.256C60.4331 49.8747 60.7318 50.3547 61.1158 50.696C61.5104 51.0373 61.9798 51.208 62.5238 51.208Z" fill="#90A3BF"/>
<path d="M0 47.848H68.1718V48.488H0V47.848Z" fill="#90A3BF"/>
</svg>
