<svg width="220" height="24" viewBox="0 0 220 24" fill="none" xmlns="http://www.w3.org/2000/svg">
<g clip-path="url(#clip0_35_7941)">
<path fill-rule="evenodd" clip-rule="evenodd" d="M9.16664 4.65862C9.22421 4.47609 9.33846 4.31666 9.49281 4.20349C9.64717 4.09031 9.83358 4.0293 10.025 4.0293C10.2164 4.0293 10.4028 4.09031 10.5571 4.20349C10.7115 4.31666 10.8257 4.47609 10.8833 4.65862L12.4333 9.42529H17.4333C17.6315 9.41779 17.8268 9.47541 17.9892 9.58932C18.1516 9.70324 18.2723 9.86719 18.3327 10.0561C18.3932 10.2451 18.3902 10.4486 18.324 10.6357C18.2579 10.8227 18.1324 10.983 17.9666 11.092L13.9083 14.0336L15.4583 18.8086C15.5196 18.9905 15.5212 19.1872 15.4627 19.3701C15.4043 19.5529 15.2889 19.7122 15.1335 19.8249C14.9781 19.9375 14.7907 19.9975 14.5988 19.996C14.4068 19.9946 14.2204 19.9319 14.0666 19.817L9.99998 16.842L5.94164 19.792C5.7879 19.9069 5.60145 19.9696 5.40951 19.971C5.21758 19.9725 5.03022 19.9125 4.87479 19.7999C4.71936 19.6872 4.604 19.5279 4.54557 19.3451C4.48713 19.1622 4.48868 18.9655 4.54998 18.7836L6.09998 14.0086L2.04164 11.067C1.87588 10.958 1.75035 10.7977 1.68424 10.6107C1.61813 10.4236 1.61508 10.2201 1.67554 10.0311C1.736 9.84219 1.85666 9.67824 2.01907 9.56432C2.18149 9.45041 2.37673 9.39279 2.57498 9.40029H7.57498L9.16664 4.65862Z" fill="#FBAD39"/>
<path fill-rule="evenodd" clip-rule="evenodd" d="M31.1666 4.65862C31.2242 4.47609 31.3385 4.31666 31.4928 4.20349C31.6472 4.09031 31.8336 4.0293 32.025 4.0293C32.2164 4.0293 32.4028 4.09031 32.5571 4.20349C32.7115 4.31666 32.8257 4.47609 32.8833 4.65862L34.4333 9.42529H39.4333C39.6315 9.41779 39.8268 9.47541 39.9892 9.58932C40.1516 9.70324 40.2723 9.86719 40.3327 10.0561C40.3932 10.2451 40.3902 10.4486 40.324 10.6357C40.2579 10.8227 40.1324 10.983 39.9666 11.092L35.9083 14.0336L37.4583 18.8086C37.5196 18.9905 37.5212 19.1872 37.4627 19.3701C37.4043 19.5529 37.2889 19.7122 37.1335 19.8249C36.9781 19.9375 36.7907 19.9975 36.5988 19.996C36.4068 19.9946 36.2204 19.9319 36.0666 19.817L32 16.842L27.9416 19.792C27.7879 19.9069 27.6014 19.9696 27.4095 19.971C27.2176 19.9725 27.0302 19.9125 26.8748 19.7999C26.7194 19.6872 26.604 19.5279 26.5456 19.3451C26.4871 19.1622 26.4887 18.9655 26.55 18.7836L28.1 14.0086L24.0416 11.067C23.8759 10.958 23.7504 10.7977 23.6842 10.6107C23.6181 10.4236 23.6151 10.2201 23.6755 10.0311C23.736 9.84219 23.8567 9.67824 24.0191 9.56432C24.1815 9.45041 24.3767 9.39279 24.575 9.40029H29.575L31.1666 4.65862Z" fill="#FBAD39"/>
<path fill-rule="evenodd" clip-rule="evenodd" d="M53.1666 4.65862C53.2242 4.47609 53.3385 4.31666 53.4928 4.20349C53.6472 4.09031 53.8336 4.0293 54.025 4.0293C54.2164 4.0293 54.4028 4.09031 54.5571 4.20349C54.7115 4.31666 54.8257 4.47609 54.8833 4.65862L56.4333 9.42529H61.4333C61.6315 9.41779 61.8268 9.47541 61.9892 9.58932C62.1516 9.70324 62.2723 9.86719 62.3327 10.0561C62.3932 10.2451 62.3902 10.4486 62.324 10.6357C62.2579 10.8227 62.1324 10.983 61.9666 11.092L57.9083 14.0336L59.4583 18.8086C59.5196 18.9905 59.5212 19.1872 59.4627 19.3701C59.4043 19.5529 59.2889 19.7122 59.1335 19.8249C58.9781 19.9375 58.7907 19.9975 58.5988 19.996C58.4068 19.9946 58.2204 19.9319 58.0666 19.817L54 16.842L49.9416 19.792C49.7879 19.9069 49.6014 19.9696 49.4095 19.971C49.2176 19.9725 49.0302 19.9125 48.8748 19.7999C48.7194 19.6872 48.604 19.5279 48.5456 19.3451C48.4871 19.1622 48.4887 18.9655 48.55 18.7836L50.1 14.0086L46.0416 11.067C45.8759 10.958 45.7504 10.7977 45.6842 10.6107C45.6181 10.4236 45.6151 10.2201 45.6755 10.0311C45.736 9.84219 45.8567 9.67824 46.0191 9.56432C46.1815 9.45041 46.3767 9.39279 46.575 9.40029H51.575L53.1666 4.65862Z" fill="#FBAD39"/>
<path fill-rule="evenodd" clip-rule="evenodd" d="M75.1666 4.65862C75.2242 4.47609 75.3385 4.31666 75.4928 4.20349C75.6472 4.09031 75.8336 4.0293 76.025 4.0293C76.2164 4.0293 76.4028 4.09031 76.5571 4.20349C76.7115 4.31666 76.8257 4.47609 76.8833 4.65862L78.4333 9.42529H83.4333C83.6315 9.41779 83.8268 9.47541 83.9892 9.58932C84.1516 9.70324 84.2723 9.86719 84.3327 10.0561C84.3932 10.2451 84.3902 10.4486 84.324 10.6357C84.2579 10.8227 84.1324 10.983 83.9666 11.092L79.9083 14.0336L81.4583 18.8086C81.5196 18.9905 81.5212 19.1872 81.4627 19.3701C81.4043 19.5529 81.2889 19.7122 81.1335 19.8249C80.9781 19.9375 80.7907 19.9975 80.5988 19.996C80.4068 19.9946 80.2204 19.9319 80.0666 19.817L76 16.842L71.9416 19.792C71.7879 19.9069 71.6014 19.9696 71.4095 19.971C71.2176 19.9725 71.0302 19.9125 70.8748 19.7999C70.7194 19.6872 70.604 19.5279 70.5456 19.3451C70.4871 19.1622 70.4887 18.9655 70.55 18.7836L72.1 14.0086L68.0416 11.067C67.8759 10.958 67.7504 10.7977 67.6842 10.6107C67.6181 10.4236 67.6151 10.2201 67.6755 10.0311C67.736 9.84219 67.8567 9.67824 68.0191 9.56432C68.1815 9.45041 68.3767 9.39279 68.575 9.40029H73.575L75.1666 4.65862Z" fill="#FBAD39"/>
<path fill-rule="evenodd" clip-rule="evenodd" d="M97.1666 4.65862C97.2242 4.47609 97.3385 4.31666 97.4928 4.20349C97.6472 4.09031 97.8336 4.0293 98.025 4.0293C98.2164 4.0293 98.4028 4.09031 98.5571 4.20349C98.7115 4.31666 98.8257 4.47609 98.8833 4.65862L100.433 9.42529H105.433C105.632 9.41779 105.827 9.47541 105.989 9.58932C106.152 9.70324 106.272 9.86719 106.333 10.0561C106.393 10.2451 106.39 10.4486 106.324 10.6357C106.258 10.8227 106.132 10.983 105.967 11.092L101.908 14.0336L103.458 18.8086C103.52 18.9905 103.521 19.1872 103.463 19.3701C103.404 19.5529 103.289 19.7122 103.133 19.8249C102.978 19.9375 102.791 19.9975 102.599 19.996C102.407 19.9946 102.22 19.9319 102.067 19.817L98 16.842L93.9416 19.792C93.7879 19.9069 93.6014 19.9696 93.4095 19.971C93.2176 19.9725 93.0302 19.9125 92.8748 19.7999C92.7194 19.6872 92.604 19.5279 92.5456 19.3451C92.4871 19.1622 92.4887 18.9655 92.55 18.7836L94.1 14.0086L90.0416 11.067C89.8759 10.958 89.7504 10.7977 89.6842 10.6107C89.6181 10.4236 89.6151 10.2201 89.6755 10.0311C89.736 9.84219 89.8567 9.67824 90.0191 9.56432C90.1815 9.45041 90.3767 9.39279 90.575 9.40029H95.575L97.1666 4.65862Z" stroke="#90A3BF" stroke-width="1.5" stroke-linecap="round" stroke-linejoin="round"/>
</g>
<path d="M121.726 18V15.592H116.602V14.458L121.698 7.57H123.014V14.458H124.372V15.592H123.014V18H121.726ZM117.638 14.948L117.442 14.458H121.726V8.718L122.132 8.83L117.638 14.948ZM130.934 18V15.592H125.81V14.458L130.906 7.57H132.222V14.458H133.58V15.592H132.222V18H130.934ZM126.846 14.948L126.65 14.458H130.934V8.718L131.34 8.83L126.846 14.948ZM139.497 18.168C138.667 18.168 137.939 17.944 137.313 17.496C136.697 17.0387 136.217 16.4087 135.871 15.606C135.526 14.794 135.353 13.8513 135.353 12.778C135.353 11.7047 135.526 10.7667 135.871 9.964C136.217 9.152 136.697 8.522 137.313 8.074C137.929 7.626 138.653 7.402 139.483 7.402C140.314 7.402 141.037 7.626 141.653 8.074C142.269 8.522 142.75 9.152 143.095 9.964C143.45 10.7667 143.627 11.7047 143.627 12.778C143.627 13.8513 143.455 14.794 143.109 15.606C142.764 16.418 142.279 17.048 141.653 17.496C141.037 17.944 140.319 18.168 139.497 18.168ZM139.497 16.894C140.057 16.894 140.543 16.726 140.953 16.39C141.364 16.0447 141.681 15.564 141.905 14.948C142.139 14.332 142.255 13.6087 142.255 12.778C142.255 11.9473 142.139 11.224 141.905 10.608C141.681 9.992 141.359 9.516 140.939 9.18C140.529 8.844 140.043 8.676 139.483 8.676C138.923 8.676 138.438 8.844 138.027 9.18C137.617 9.516 137.295 9.992 137.061 10.608C136.837 11.224 136.725 11.9473 136.725 12.778C136.725 13.5993 136.837 14.318 137.061 14.934C137.295 15.55 137.617 16.0307 138.027 16.376C138.447 16.7213 138.937 16.894 139.497 16.894ZM148.592 18V15.102H145.694V13.884H148.592V11H149.81V13.884H152.694V15.102H149.81V18H148.592ZM157.705 18V7.57H161.387C162.077 7.57 162.684 7.70067 163.207 7.962C163.729 8.22333 164.135 8.59667 164.425 9.082C164.723 9.56733 164.873 10.1367 164.873 10.79C164.873 11.5273 164.686 12.1527 164.313 12.666C163.939 13.1793 163.435 13.548 162.801 13.772L165.223 18H163.627L161.079 13.478L161.989 14.01H159.077V18H157.705ZM159.077 12.75H161.429C161.839 12.75 162.199 12.6707 162.507 12.512C162.815 12.3533 163.053 12.1247 163.221 11.826C163.398 11.5273 163.487 11.182 163.487 10.79C163.487 10.3887 163.398 10.0433 163.221 9.754C163.053 9.45533 162.815 9.22667 162.507 9.068C162.199 8.90933 161.839 8.83 161.429 8.83H159.077V12.75ZM169.957 18.168C169.229 18.168 168.58 17.9953 168.011 17.65C167.442 17.3047 166.994 16.8333 166.667 16.236C166.34 15.6293 166.177 14.9527 166.177 14.206C166.177 13.45 166.336 12.778 166.653 12.19C166.98 11.602 167.418 11.14 167.969 10.804C168.529 10.4587 169.154 10.286 169.845 10.286C170.405 10.286 170.9 10.3887 171.329 10.594C171.768 10.79 172.136 11.0607 172.435 11.406C172.743 11.742 172.976 12.1293 173.135 12.568C173.303 12.9973 173.387 13.4453 173.387 13.912C173.387 14.0147 173.378 14.1313 173.359 14.262C173.35 14.3833 173.336 14.5 173.317 14.612H167.129V13.492H172.561L171.945 13.996C172.029 13.5107 171.982 13.0767 171.805 12.694C171.628 12.3113 171.366 12.008 171.021 11.784C170.676 11.56 170.284 11.448 169.845 11.448C169.406 11.448 169.005 11.56 168.641 11.784C168.277 12.008 167.992 12.33 167.787 12.75C167.591 13.1607 167.512 13.6507 167.549 14.22C167.512 14.7707 167.596 15.256 167.801 15.676C168.016 16.0867 168.314 16.4087 168.697 16.642C169.089 16.866 169.514 16.978 169.971 16.978C170.475 16.978 170.9 16.8613 171.245 16.628C171.59 16.3947 171.87 16.096 172.085 15.732L173.177 16.292C173.028 16.6373 172.794 16.9547 172.477 17.244C172.169 17.524 171.8 17.748 171.371 17.916C170.951 18.084 170.48 18.168 169.957 18.168ZM177.328 18L174.374 10.454H175.83L178.196 16.838H177.692L180.072 10.454H181.528L178.56 18H177.328ZM182.973 18V10.454H184.275V18H182.973ZM182.973 9.25V7.57H184.275V9.25H182.973ZM190.047 18.168C189.319 18.168 188.67 17.9953 188.101 17.65C187.532 17.3047 187.084 16.8333 186.757 16.236C186.43 15.6293 186.267 14.9527 186.267 14.206C186.267 13.45 186.426 12.778 186.743 12.19C187.07 11.602 187.508 11.14 188.059 10.804C188.619 10.4587 189.244 10.286 189.935 10.286C190.495 10.286 190.99 10.3887 191.419 10.594C191.858 10.79 192.226 11.0607 192.525 11.406C192.833 11.742 193.066 12.1293 193.225 12.568C193.393 12.9973 193.477 13.4453 193.477 13.912C193.477 14.0147 193.468 14.1313 193.449 14.262C193.44 14.3833 193.426 14.5 193.407 14.612H187.219V13.492H192.651L192.035 13.996C192.119 13.5107 192.072 13.0767 191.895 12.694C191.718 12.3113 191.456 12.008 191.111 11.784C190.766 11.56 190.374 11.448 189.935 11.448C189.496 11.448 189.095 11.56 188.731 11.784C188.367 12.008 188.082 12.33 187.877 12.75C187.681 13.1607 187.602 13.6507 187.639 14.22C187.602 14.7707 187.686 15.256 187.891 15.676C188.106 16.0867 188.404 16.4087 188.787 16.642C189.179 16.866 189.604 16.978 190.061 16.978C190.565 16.978 190.99 16.8613 191.335 16.628C191.68 16.3947 191.96 16.096 192.175 15.732L193.267 16.292C193.118 16.6373 192.884 16.9547 192.567 17.244C192.259 17.524 191.89 17.748 191.461 17.916C191.041 18.084 190.57 18.168 190.047 18.168ZM197.19 18L194.6 10.454H196.042L198.1 16.768L197.596 16.754L199.612 10.454H200.844L202.86 16.754L202.356 16.768L204.428 10.454H205.856L203.266 18H202.02L200.032 11.7H200.424L198.436 18H197.19ZM210.636 18.168C209.908 18.168 209.26 17.9953 208.69 17.65C208.121 17.3047 207.673 16.8333 207.346 16.236C207.02 15.6293 206.856 14.9527 206.856 14.206C206.856 13.45 207.015 12.778 207.332 12.19C207.659 11.602 208.098 11.14 208.648 10.804C209.208 10.4587 209.834 10.286 210.524 10.286C211.084 10.286 211.579 10.3887 212.008 10.594C212.447 10.79 212.816 11.0607 213.114 11.406C213.422 11.742 213.656 12.1293 213.814 12.568C213.982 12.9973 214.066 13.4453 214.066 13.912C214.066 14.0147 214.057 14.1313 214.038 14.262C214.029 14.3833 214.015 14.5 213.996 14.612H207.808V13.492H213.24L212.624 13.996C212.708 13.5107 212.662 13.0767 212.484 12.694C212.307 12.3113 212.046 12.008 211.7 11.784C211.355 11.56 210.963 11.448 210.524 11.448C210.086 11.448 209.684 11.56 209.32 11.784C208.956 12.008 208.672 12.33 208.466 12.75C208.27 13.1607 208.191 13.6507 208.228 14.22C208.191 14.7707 208.275 15.256 208.48 15.676C208.695 16.0867 208.994 16.4087 209.376 16.642C209.768 16.866 210.193 16.978 210.65 16.978C211.154 16.978 211.579 16.8613 211.924 16.628C212.27 16.3947 212.55 16.096 212.764 15.732L213.856 16.292C213.707 16.6373 213.474 16.9547 213.156 17.244C212.848 17.524 212.48 17.748 212.05 17.916C211.63 18.084 211.159 18.168 210.636 18.168ZM216.044 18V10.454H217.318V11.84L217.178 11.644C217.355 11.2147 217.626 10.8973 217.99 10.692C218.354 10.4773 218.797 10.37 219.32 10.37H219.782V11.602H219.124C218.592 11.602 218.162 11.77 217.836 12.106C217.509 12.4327 217.346 12.8993 217.346 13.506V18H216.044Z" fill="#596780"/>
<defs>
<clipPath id="clip0_35_7941">
<rect width="108" height="20" fill="white" transform="translate(0 2)"/>
</clipPath>
</defs>
</svg>
