<svg width="132" height="44" viewBox="0 0 132 44" fill="none" xmlns="http://www.w3.org/2000/svg">
<path d="M27.8093 29.192C27.0626 29.192 26.3693 29.0533 25.7293 28.776C25.0893 28.488 24.5453 28.0987 24.0973 27.608C23.6493 27.1173 23.3186 26.552 23.1053 25.912L24.7053 25.24C24.9933 25.976 25.4146 26.5413 25.9693 26.936C26.5239 27.3307 27.1639 27.528 27.8893 27.528C28.3159 27.528 28.6893 27.464 29.0093 27.336C29.3293 27.1973 29.5746 27.0053 29.7453 26.76C29.9266 26.5147 30.0173 26.232 30.0173 25.912C30.0173 25.4747 29.8946 25.128 29.6493 24.872C29.4039 24.616 29.0413 24.4133 28.5613 24.264L26.3213 23.56C25.4253 23.2827 24.7426 22.8613 24.2733 22.296C23.8039 21.72 23.5693 21.048 23.5693 20.28C23.5693 19.608 23.7346 19.0213 24.0653 18.52C24.3959 18.008 24.8493 17.608 25.4253 17.32C26.0119 17.032 26.6786 16.888 27.4253 16.888C28.1399 16.888 28.7906 17.016 29.3773 17.272C29.9639 17.5173 30.4653 17.8587 30.8813 18.296C31.3079 18.7333 31.6173 19.24 31.8093 19.816L30.2413 20.504C30.0066 19.8747 29.6386 19.3893 29.1373 19.048C28.6466 18.7067 28.0759 18.536 27.4253 18.536C27.0306 18.536 26.6839 18.6053 26.3853 18.744C26.0866 18.872 25.8519 19.064 25.6813 19.32C25.5213 19.5653 25.4413 19.8533 25.4413 20.184C25.4413 20.568 25.5639 20.9093 25.8093 21.208C26.0546 21.5067 26.4279 21.7307 26.9293 21.88L29.0093 22.536C29.9586 22.824 30.6733 23.24 31.1533 23.784C31.6333 24.3173 31.8733 24.984 31.8733 25.784C31.8733 26.4453 31.6973 27.032 31.3453 27.544C31.0039 28.056 30.5293 28.4613 29.9213 28.76C29.3133 29.048 28.6093 29.192 27.8093 29.192ZM33.4966 29V16.888H35.3046V22.04L35.0166 21.816C35.23 21.272 35.5713 20.8613 36.0406 20.584C36.51 20.296 37.054 20.152 37.6726 20.152C38.3126 20.152 38.878 20.2907 39.3686 20.568C39.8593 20.8453 40.2433 21.2293 40.5206 21.72C40.798 22.2107 40.9366 22.7707 40.9366 23.4V29H39.1446V23.896C39.1446 23.4587 39.0593 23.0907 38.8886 22.792C38.7286 22.4827 38.5046 22.248 38.2166 22.088C37.9286 21.9173 37.598 21.832 37.2246 21.832C36.862 21.832 36.5313 21.9173 36.2326 22.088C35.9446 22.248 35.7153 22.4827 35.5446 22.792C35.3846 23.1013 35.3046 23.4693 35.3046 23.896V29H33.4966ZM46.7276 29.192C45.8956 29.192 45.133 28.9947 44.4396 28.6C43.757 28.2053 43.213 27.6667 42.8076 26.984C42.4023 26.3013 42.1996 25.528 42.1996 24.664C42.1996 23.7893 42.4023 23.016 42.8076 22.344C43.213 21.6613 43.757 21.128 44.4396 20.744C45.1223 20.3493 45.885 20.152 46.7276 20.152C47.581 20.152 48.3436 20.3493 49.0156 20.744C49.6983 21.128 50.237 21.6613 50.6316 22.344C51.037 23.016 51.2396 23.7893 51.2396 24.664C51.2396 25.5387 51.037 26.3173 50.6316 27C50.2263 27.6827 49.6823 28.2213 48.9996 28.616C48.317 29 47.5596 29.192 46.7276 29.192ZM46.7276 27.512C47.2396 27.512 47.693 27.3893 48.0876 27.144C48.4823 26.8987 48.7916 26.5627 49.0156 26.136C49.2503 25.6987 49.3676 25.208 49.3676 24.664C49.3676 24.12 49.2503 23.6347 49.0156 23.208C48.7916 22.7813 48.4823 22.4453 48.0876 22.2C47.693 21.9547 47.2396 21.832 46.7276 21.832C46.2263 21.832 45.773 21.9547 45.3676 22.2C44.973 22.4453 44.6583 22.7813 44.4236 23.208C44.1996 23.6347 44.0876 24.12 44.0876 24.664C44.0876 25.208 44.1996 25.6987 44.4236 26.136C44.6583 26.5627 44.973 26.8987 45.3676 27.144C45.773 27.3893 46.2263 27.512 46.7276 27.512ZM54.6245 29L51.6485 20.344H53.5685L55.8405 27.24H55.1685L57.4885 20.344H59.1365L61.4405 27.24H60.7685L63.0565 20.344H64.9765L61.9845 29H60.3525L58.0165 21.944H58.6085L56.2725 29H54.6245ZM67.4929 29L71.6849 17.08H74.0209L78.2129 29H76.1969L75.2849 26.328H70.4369L69.5089 29H67.4929ZM70.9809 24.648H74.7089L72.5969 18.408H73.1249L70.9809 24.648ZM79.131 29V16.888H80.939V29H79.131ZM82.7329 29V16.888H84.5409V29H82.7329Z" fill="#90A3BF"/>
<path d="M104 25.1994C103.534 25.1994 103.067 25.0194 102.714 24.6661L98.3669 20.3194C98.1736 20.1261 98.1736 19.8061 98.3669 19.6128C98.5603 19.4194 98.8803 19.4194 99.0736 19.6128L103.42 23.9594C103.74 24.2794 104.26 24.2794 104.58 23.9594L108.927 19.6128C109.12 19.4194 109.44 19.4194 109.634 19.6128C109.827 19.8061 109.827 20.1261 109.634 20.3194L105.287 24.6661C104.934 25.0194 104.467 25.1994 104 25.1994Z" fill="#90A3BF" stroke="#90A3BF" stroke-width="0.5"/>
</svg>
