<svg width="136" height="28" viewBox="0 0 136 28" fill="none" xmlns="http://www.w3.org/2000/svg">
<path d="M1.54 22V7.1H6.96C7.96 7.1 8.84 7.28667 9.6 7.66C10.36 8.02 10.9533 8.55333 11.38 9.26C11.82 9.95333 12.04 10.7867 12.04 11.76C12.04 12.7867 11.78 13.6667 11.26 14.4C10.7533 15.1333 10.0667 15.6667 9.2 16L12.64 22H9.96L6.3 15.5L7.84 16.4H3.9V22H1.54ZM3.9 14.3H7C7.54667 14.3 8.02 14.1933 8.42 13.98C8.82 13.7667 9.12667 13.4733 9.34 13.1C9.56667 12.7133 9.68 12.26 9.68 11.74C9.68 11.22 9.56667 10.7733 9.34 10.4C9.12667 10.0133 8.82 9.72 8.42 9.52C8.02 9.30667 7.54667 9.2 7 9.2H3.9V14.3ZM18.4805 22.24C17.4005 22.24 16.4405 21.9933 15.6005 21.5C14.7738 20.9933 14.1271 20.3133 13.6605 19.46C13.1938 18.5933 12.9605 17.6267 12.9605 16.56C12.9605 15.4667 13.1938 14.5 13.6605 13.66C14.1405 12.82 14.7805 12.16 15.5805 11.68C16.3805 11.1867 17.2871 10.94 18.3005 10.94C19.1138 10.94 19.8405 11.08 20.4805 11.36C21.1205 11.64 21.6605 12.0267 22.1005 12.52C22.5405 13 22.8738 13.5533 23.1005 14.18C23.3405 14.8067 23.4605 15.4733 23.4605 16.18C23.4605 16.3533 23.4538 16.5333 23.4405 16.72C23.4271 16.9067 23.4005 17.08 23.3605 17.24H14.7405V15.44H22.0805L21.0005 16.26C21.1338 15.6067 21.0871 15.0267 20.8605 14.52C20.6471 14 20.3138 13.5933 19.8605 13.3C19.4205 12.9933 18.9005 12.84 18.3005 12.84C17.7005 12.84 17.1671 12.9933 16.7005 13.3C16.2338 13.5933 15.8738 14.02 15.6205 14.58C15.3671 15.1267 15.2671 15.7933 15.3205 16.58C15.2538 17.3133 15.3538 17.9533 15.6205 18.5C15.9005 19.0467 16.2871 19.4733 16.7805 19.78C17.2871 20.0867 17.8605 20.24 18.5005 20.24C19.1538 20.24 19.7071 20.0933 20.1605 19.8C20.6271 19.5067 20.9938 19.1267 21.2605 18.66L23.1005 19.56C22.8871 20.0667 22.5538 20.5267 22.1005 20.94C21.6605 21.34 21.1271 21.66 20.5005 21.9C19.8871 22.1267 19.2138 22.24 18.4805 22.24ZM28.2108 22L23.9708 11.18H26.4308L29.6908 20H28.7908L32.0508 11.18H34.5308L30.2708 22H28.2108ZM35.6669 22V11.18H37.9269V22H35.6669ZM35.6669 9.7V7.1H37.9269V9.7H35.6669ZM45.2492 22.24C44.1692 22.24 43.2092 21.9933 42.3692 21.5C41.5426 20.9933 40.8959 20.3133 40.4292 19.46C39.9626 18.5933 39.7292 17.6267 39.7292 16.56C39.7292 15.4667 39.9626 14.5 40.4292 13.66C40.9092 12.82 41.5492 12.16 42.3492 11.68C43.1492 11.1867 44.0559 10.94 45.0692 10.94C45.8826 10.94 46.6092 11.08 47.2492 11.36C47.8892 11.64 48.4292 12.0267 48.8692 12.52C49.3092 13 49.6426 13.5533 49.8692 14.18C50.1092 14.8067 50.2292 15.4733 50.2292 16.18C50.2292 16.3533 50.2226 16.5333 50.2092 16.72C50.1959 16.9067 50.1692 17.08 50.1292 17.24H41.5092V15.44H48.8492L47.7692 16.26C47.9026 15.6067 47.8559 15.0267 47.6292 14.52C47.4159 14 47.0826 13.5933 46.6292 13.3C46.1892 12.9933 45.6692 12.84 45.0692 12.84C44.4692 12.84 43.9359 12.9933 43.4692 13.3C43.0026 13.5933 42.6426 14.02 42.3892 14.58C42.1359 15.1267 42.0359 15.7933 42.0892 16.58C42.0226 17.3133 42.1226 17.9533 42.3892 18.5C42.6692 19.0467 43.0559 19.4733 43.5492 19.78C44.0559 20.0867 44.6292 20.24 45.2692 20.24C45.9226 20.24 46.4759 20.0933 46.9292 19.8C47.3959 19.5067 47.7626 19.1267 48.0292 18.66L49.8692 19.56C49.6559 20.0667 49.3226 20.5267 48.8692 20.94C48.4292 21.34 47.8959 21.66 47.2692 21.9C46.6559 22.1267 45.9826 22.24 45.2492 22.24ZM54.6548 22L50.9348 11.18H53.3348L56.1748 19.8H55.3348L58.2348 11.18H60.2948L63.1748 19.8H62.3348L65.1948 11.18H67.5948L63.8548 22H61.8148L58.8948 13.18H59.6348L56.7148 22H54.6548ZM72.7442 22.24C71.6376 22.24 70.6642 21.9667 69.8242 21.42C68.9976 20.8733 68.4176 20.14 68.0842 19.22L69.8242 18.4C70.1176 19.0133 70.5176 19.5 71.0242 19.86C71.5442 20.22 72.1176 20.4 72.7442 20.4C73.2776 20.4 73.7109 20.28 74.0442 20.04C74.3776 19.8 74.5442 19.4733 74.5442 19.06C74.5442 18.7933 74.4709 18.58 74.3242 18.42C74.1776 18.2467 73.9909 18.1067 73.7642 18C73.5509 17.8933 73.3309 17.8133 73.1042 17.76L71.4042 17.28C70.4709 17.0133 69.7709 16.6133 69.3042 16.08C68.8509 15.5333 68.6242 14.9 68.6242 14.18C68.6242 13.5267 68.7909 12.96 69.1242 12.48C69.4576 11.9867 69.9176 11.6067 70.5042 11.34C71.0909 11.0733 71.7509 10.94 72.4842 10.94C73.4709 10.94 74.3509 11.1867 75.1242 11.68C75.8976 12.16 76.4442 12.8333 76.7642 13.7L75.0242 14.52C74.8109 14 74.4709 13.5867 74.0042 13.28C73.5509 12.9733 73.0376 12.82 72.4642 12.82C71.9709 12.82 71.5776 12.94 71.2842 13.18C70.9909 13.4067 70.8442 13.7067 70.8442 14.08C70.8442 14.3333 70.9109 14.5467 71.0442 14.72C71.1776 14.88 71.3509 15.0133 71.5642 15.12C71.7776 15.2133 71.9976 15.2933 72.2242 15.36L73.9842 15.88C74.8776 16.1333 75.5642 16.5333 76.0442 17.08C76.5242 17.6133 76.7642 18.2533 76.7642 19C76.7642 19.64 76.5909 20.2067 76.2442 20.7C75.9109 21.18 75.4442 21.56 74.8442 21.84C74.2442 22.1067 73.5442 22.24 72.7442 22.24Z" fill="#1A202C"/>
<rect x="92" width="44" height="28" rx="4" fill="#3563E9"/>
<path d="M109.319 20V11.194H107.303V9.57H111.223V20H109.319ZM116.646 20.168C116.077 20.168 115.535 20.0653 115.022 19.86C114.518 19.6453 114.084 19.3467 113.72 18.964C113.365 18.572 113.123 18.11 112.992 17.578L114.658 16.99C114.826 17.466 115.083 17.83 115.428 18.082C115.773 18.3247 116.179 18.446 116.646 18.446C117.019 18.446 117.341 18.376 117.612 18.236C117.892 18.096 118.111 17.8953 118.27 17.634C118.429 17.3633 118.508 17.046 118.508 16.682C118.508 16.318 118.429 16.01 118.27 15.758C118.121 15.4967 117.906 15.296 117.626 15.156C117.346 15.016 117.015 14.946 116.632 14.946C116.455 14.946 116.268 14.9647 116.072 15.002C115.885 15.0393 115.717 15.0953 115.568 15.17L115.134 14.26L117.836 11.18H113.58V9.57H119.978V11.068L117.262 14.246L117.29 13.532C117.915 13.5413 118.461 13.6767 118.928 13.938C119.395 14.1993 119.759 14.5587 120.02 15.016C120.281 15.4733 120.412 16.01 120.412 16.626C120.412 17.298 120.249 17.9047 119.922 18.446C119.595 18.978 119.147 19.398 118.578 19.706C118.009 20.014 117.365 20.168 116.646 20.168Z" fill="white"/>
</svg>
